<?xml version="1.0" encoding="utf-8"?>
<!-- Generator: Adobe Illustrator 18.1.1, SVG Export Plug-In . SVG Version: 6.00 Build 0)  -->
<svg version="1.1" id="Layer_1" xmlns="http://www.w3.org/2000/svg" xmlns:xlink="http://www.w3.org/1999/xlink" x="0px" y="0px"
	 viewBox="150.2 60.2 491.6 369.2" enable-background="new 150.2 60.2 491.6 369.2" xml:space="preserve">
<path d="M601,198.9L365.4,153V91.8c0-16.9-13.4-30.6-30.6-30.6c-10,0-16.3,2.6-30.6,17.7L168.4,214.2c-9.6,10-17.2,17-17.2,30.6
	c0,13.6,7.6,20.6,17.2,30.6l135.8,135.3c14.4,15.1,20.6,17.7,30.6,17.7c17.2,0,30.6-13.7,30.6-30.6v-61.2L601,290.7
	c37.9-8.6,39.8-38.5,39.8-45.9S638.9,207.5,601,198.9z"/>
<text transform="matrix(1 0 0 1 151.2034 719.0911)" font-family="'HelveticaNeue-Bold'" font-size="76.5">Created by Timothy Miller</text>
<text transform="matrix(1 0 0 1 151.2034 795.5911)" font-family="'HelveticaNeue-Bold'" font-size="76.5">from the Noun Project</text>
</svg>
