<?xml version="1.0" encoding="utf-8"?>
<!-- Generator: Adobe Illustrator 18.1.1, SVG Export Plug-In . SVG Version: 6.00 Build 0)  -->
<svg version="1.1" id="Layer_1" xmlns="http://www.w3.org/2000/svg" xmlns:xlink="http://www.w3.org/1999/xlink" x="0px" y="0px"
	 viewBox="150.2 60.2 491.6 369.2" enable-background="new 150.2 60.2 491.6 369.2" xml:space="preserve">
<path d="M623.6,214.2L487.8,78.9c-14.3-15.1-20.6-17.7-30.6-17.7c-17.2,0-30.6,13.7-30.6,30.6V153L191,198.9
	c-37.9,8.6-39.8,38.5-39.8,45.9s1.9,37.3,39.8,45.9l235.6,45.9v61.2c0,16.9,13.4,30.6,30.6,30.6c10,0,16.3-2.6,30.6-17.7
	l135.8-135.3c9.6-10,17.2-17,17.2-30.6S633.2,224.2,623.6,214.2z"/>
<text transform="matrix(1 0 0 1 151.2034 719.0911)" font-family="'HelveticaNeue-Bold'" font-size="76.5">Created by Timothy Miller</text>
<text transform="matrix(1 0 0 1 151.2034 795.5911)" font-family="'HelveticaNeue-Bold'" font-size="76.5">from the Noun Project</text>
</svg>
