<?xml version="1.0" encoding="utf-8"?>
<!-- Generator: Adobe Illustrator 18.1.1, SVG Export Plug-In . SVG Version: 6.00 Build 0)  -->
<svg version="1.1" id="Layer_1" xmlns="http://www.w3.org/2000/svg" xmlns:xlink="http://www.w3.org/1999/xlink" x="0px" y="0px"
	 viewBox="0 0 792 612" enable-background="new 0 0 792 612" xml:space="preserve">
<path fill="#FFFFFF" d="M762.1,256.7l-218.8-218c-23-24.3-33.2-28.5-49.3-28.5c-27.7,0-49.3,22.1-49.3,49.3v98.6L65.1,232.1
	C4.1,245.9,1,294.1,1,306c0,11.9,3.1,60.1,64.1,73.9l379.6,73.9v98.6c0,27.2,21.6,49.3,49.3,49.3c16.1,0,26.3-4.2,49.3-28.5
	l218.8-218c15.5-16.1,27.7-27.4,27.7-49.3C789.8,284.1,777.5,272.8,762.1,256.7z"/>
<text transform="matrix(1 0 0 1 151.8165 1130.3147)" font-family="'HelveticaNeue-Bold'" font-size="123.2465">Created by Timothy Miller</text>
<text transform="matrix(1 0 0 1 151.8165 1253.5609)" font-family="'HelveticaNeue-Bold'" font-size="123.2465">from the Noun Project</text>
</svg>
